<svg xmlns="http://www.w3.org/2000/svg" fill="none" viewBox="0 0 64 64" aria-hidden="true"><path fill="#fff" stroke="#B6B6B6" stroke-miterlimit="10" stroke-width=".15" d="M32 62.72c16.966 0 30.72-13.754 30.72-30.72S48.966 1.28 32 1.28 1.28 15.034 1.28 32 15.034 62.72 32 62.72z"/><path fill="#BB133E" d="M61.866 39.091H2.134c.384 1.626.877 3.21 1.504 4.723h56.717c.637-1.513 1.123-3.097 1.51-4.723zM57.86 48.544H6.14a30.743 30.743 0 003.726 4.723h44.272a31.118 31.118 0 003.721-4.723zM15.68 57.997C20.413 60.973 25.997 62.72 32 62.72s11.587-1.747 16.32-4.723H15.68zM48.32 6.003c-.115-.07-.23-.137-.346-.208v.208h.346zM47.974 15.456h9.885a30.743 30.743 0 00-3.725-4.723h-6.163v4.723h.003z"/><path fill="#fff" d="M9.146 19.248l-.426 1.306H7.344l1.114.806-.426 1.309 1.114-.807 1.113.807-.425-1.306 1.11-.81H9.568l-.422-1.305zM9.568 27.19l-.422-1.305-.426 1.305H7.344l1.114.807-.426 1.309 1.114-.807 1.11.807-.422-1.31 1.11-.806H9.568zM9.146 12.611l-.426 1.306H7.344l1.114.81-.426 1.308 1.114-.81 1.11.81-.422-1.309 1.11-.81H9.568l-.422-1.305zM13.014 22.566l-.422 1.306h-1.376l1.11.806-.422 1.31 1.11-.807 1.114.806-.426-1.309 1.114-.806H13.44l-.426-1.306zM13.44 30.506l-.426-1.306-.422 1.306h-1.376l1.11.81-.422 1.308 1.11-.81 1.114.81-.426-1.309 1.114-.81H13.44zM5.274 22.566l-.423 1.306H3.472l1.114.806-.426 1.31 1.114-.807 1.113.806-.425-1.309 1.113-.806H5.696l-.422-1.306zM5.696 30.506L5.274 29.2l-.423 1.306H3.472l1.114.81-.426 1.308 1.114-.81 1.113.81-.425-1.309 1.113-.81H5.696zM42.18 3.965l1.113.806-.426 1.309 1.114-.806 1.113.806-.422-1.309.611-.441c-.253-.122-.499-.25-.755-.365h-.115l-.023-.067a27.736 27.736 0 00-.707-.308l-.121.375h-1.383zM13.014 15.93l-.422 1.305h-1.376l1.11.81-.422 1.309 1.11-.81 1.114.81-.426-1.31 1.114-.809H13.44l-.426-1.305zM19.645 6.08l1.113-.806 1.11.806-.425-1.306 1.114-.806H21.18l-.202-.618c-.166.064-.339.119-.509.19l-.137.425h-.855c-.108.048-.208.105-.313.15l.902.656-.422 1.309zM5.274 18.544l1.113.806-.425-1.305 1.113-.807H5.696l-.22-.684a31.26 31.26 0 00-1.038 1.939l-.278.86 1.114-.809zM28.5 9.296l-.426 1.306h-1.376l1.113.806-.425 1.309 1.113-.807 1.11.807-.422-1.309 1.11-.806h-1.375l-.423-1.306zM28.5 15.93l-.426 1.305h-1.376l1.113.81-.425 1.309 1.113-.81 1.11.81-.422-1.31 1.11-.809h-1.375l-.423-1.305zM32.368 5.978l-.422 1.305H30.57l1.11.807-.422 1.308 1.11-.806 1.114.806-.426-1.308 1.114-.807h-1.376l-.426-1.305zM28.5 22.566l-.426 1.306h-1.376l1.113.806-.425 1.31 1.113-.807 1.11.806-.422-1.309 1.11-.806h-1.375l-.423-1.306zM28.5 2.66l-.426 1.305h-1.376l1.113.81-.425 1.305 1.113-.806 1.11.806-.422-1.306 1.11-.81h-1.375l-.423-1.305zM36.24 22.566l-.426 1.306h-1.376l1.114.806-.426 1.31 1.114-.807 1.11.806-.422-1.309 1.11-.806h-1.376l-.422-1.306zM28.922 30.506l-.423-1.306-.425 1.306h-1.376l1.113.81-.425 1.308 1.113-.81 1.11.81-.422-1.309 1.11-.81h-1.375zM36.662 30.506L36.24 29.2l-.426 1.306h-1.376l1.114.81-.426 1.308 1.114-.81 1.11.81-.422-1.309 1.11-.81h-1.376zM44.403 30.506l-.422-1.306-.423 1.306H42.18l1.114.81-.426 1.308 1.114-.81 1.113.81-.425-1.309 1.113-.81h-1.379zM40.109 5.978l-.423 1.305H38.31l1.11.807-.422 1.308 1.11-.806 1.114.806-.425-1.308 1.113-.807h-1.376l-.425-1.305zM32.368 19.248l-.422 1.306H30.57l1.11.81-.422 1.305 1.113-.807 1.114.807-.429-1.306 1.114-.806h-1.373l-.429-1.309zM40.109 19.248l-.423 1.306H38.31l1.11.81-.422 1.305 1.11-.807 1.114.807-.425-1.306 1.113-.81h-1.376l-.425-1.305zM32.794 27.19l-.426-1.305-.422 1.305H30.57l1.11.807-.422 1.309 1.11-.807 1.114.807-.426-1.31 1.114-.806h-1.376zM43.98 15.93l-.422 1.305H42.18l1.114.81-.426 1.309 1.114-.81 1.113.81-.425-1.31 1.113-.809h-1.379l-.422-1.305zM43.98 22.566l-.422 1.306H42.18l1.114.806-.426 1.31 1.114-.807 1.113.806-.425-1.309 1.113-.806h-1.379l-.422-1.306zM43.98 9.296l-.422 1.306H42.18l1.114.806-.426 1.309 1.114-.807 1.113.807-.425-1.309 1.113-.806h-1.379l-.422-1.306zM32.368 12.611l-.422 1.306H30.57l1.11.81-.422 1.308 1.11-.81 1.114.81-.426-1.309 1.114-.81h-1.376l-.426-1.305zM24.627 12.611l-.422 1.306h-1.38l1.114.81-.425 1.308 1.113-.81 1.114.81-.426-1.309 1.114-.81h-1.38l-.422-1.305zM20.755 22.566l-.422 1.306h-1.376l1.11.806-.422 1.31 1.11-.807 1.114.806-.426-1.309 1.114-.806H21.18l-.426-1.306zM21.18 30.506l-.425-1.306-.422 1.306h-1.376l1.11.81-.422 1.308 1.11-.81 1.114.81-.426-1.309 1.114-.81H21.18zM20.755 15.93l-.422 1.305h-1.376l1.11.81-.422 1.309 1.11-.81 1.114.81-.426-1.31 1.114-.809H21.18l-.426-1.305zM16.886 5.978l-.425 1.305h-1.376l1.113.807-.425 1.308 1.113-.806 1.11.806-.422-1.308 1.11-.807H17.31l-.423-1.305zM13.014 9.296l-.422 1.306h-1.376l1.11.806-.422 1.309 1.11-.807 1.114.807-.426-1.309 1.114-.806H13.44l-.426-1.306zM16.886 19.248l-.425 1.306h-1.376l1.113.81-.425 1.305 1.113-.807 1.11.807-.422-1.306 1.11-.81H17.31l-.423-1.305zM17.309 27.19l-.423-1.305-.425 1.305h-1.376l1.113.807-.425 1.309 1.113-.807 1.11.807-.422-1.31 1.11-.806H17.31zM36.24 15.93l-.426 1.305h-1.376l1.114.81-.426 1.309 1.114-.81 1.11.81-.422-1.31 1.11-.809h-1.376l-.422-1.305zM16.886 12.611l-.425 1.306h-1.376l1.113.81-.425 1.308 1.113-.81 1.11.81-.422-1.309 1.11-.81H17.31l-.423-1.305zM20.755 9.296l-.422 1.306h-1.376l1.11.806-.422 1.309 1.11-.807 1.114.807-.426-1.309 1.114-.806H21.18l-.426-1.306zM25.05 27.19l-.423-1.305-.422 1.305h-1.38l1.114.807-.425 1.309 1.113-.807 1.114.807-.426-1.31 1.114-.806h-1.38zM40.534 27.19l-.425-1.305-.423 1.305H38.31l1.11.807-.422 1.309 1.11-.807 1.114.807-.425-1.31 1.113-.806h-1.376zM24.627 5.978l-.422 1.305h-1.38l1.114.807-.425 1.308 1.113-.806 1.114.806-.426-1.308 1.114-.807h-1.38l-.422-1.305zM24.627 19.248l-.422 1.306h-1.38l1.114.81-.425 1.305 1.113-.807 1.114.807-.426-1.306 1.114-.81h-1.38l-.422-1.305zM40.109 12.611l-.423 1.306H38.31l1.11.81-.422 1.308 1.11-.81 1.114.81-.425-1.309 1.113-.81h-1.376l-.425-1.305zM36.24 9.296l-.426 1.306h-1.376l1.114.806-.426 1.309 1.114-.807 1.11.807-.422-1.309 1.11-.806h-1.376l-.422-1.306zM36.24 2.66l-.426 1.305h-1.376l1.114.81-.426 1.305 1.114-.806 1.11.806-.422-1.306 1.11-.81h-1.376L36.24 2.66z"/><path fill="#002664" d="M47.974 29.638V5.795a30.853 30.853 0 00-2.697-1.465l-.611.441.425 1.309-1.11-.806-1.114.806.423-1.309-1.114-.806h1.376l.122-.375A30.587 30.587 0 0032 1.28c-3.888 0-7.594.752-11.02 2.07l.198.615h1.376l-1.11.81.425 1.305-1.114-.806-1.11.806.422-1.309-.902-.656A30.825 30.825 0 005.475 16.55l.221.685h1.376l-1.11.81.422 1.309-1.11-.81-1.114.81.278-.861C2.435 22.573 1.28 27.146 1.28 32c0 .8.058 1.58.118 2.362h46.576v-4.724zM6.387 32.624l-1.113-.81-1.114.81.422-1.309-1.11-.81h1.376L5.27 29.2l.426 1.309h1.376l-1.11.806.425 1.309zm-.425-7.946l.422 1.31-1.11-.807-1.114.806.422-1.309-1.11-.806h1.376l.422-1.306.426 1.31h1.376l-1.11.802zm4.294 4.628l-1.11-.807-1.114.807.422-1.31-1.11-.806h1.373l.425-1.305.426 1.309h1.376l-1.11.803.422 1.309zm-.422-7.943l.422 1.309-1.11-.81-1.114.807.422-1.309-1.11-.806h1.373l.425-1.306.426 1.309h1.376l-1.11.806zm0-6.637l.422 1.31-1.11-.81-1.114.81.422-1.31-1.11-.81h1.373l.425-1.305.426 1.309h1.376l-1.11.806zm4.294 17.898l-1.114-.81-1.11.81.422-1.309-1.11-.81h1.376l.422-1.305.426 1.309h1.376l-1.114.806.426 1.309zm-.426-7.946l.423 1.31-1.11-.807-1.111.806.422-1.309-1.11-.806h1.376l.422-1.306.426 1.31h1.376l-1.114.802zm0-6.633l.423 1.309-1.11-.81-1.111.81.422-1.31-1.11-.809h1.376l.422-1.305.426 1.308h1.376l-1.114.807zm0-6.637l.423 1.309-1.11-.807-1.111.807.422-1.309-1.11-.806h1.376l.422-1.306.426 1.309h1.376l-1.114.803zm4.295 17.898l-1.11-.807-1.114.807.422-1.31-1.11-.806h1.376l.422-1.305.423 1.309h1.376l-1.108.803.423 1.309zm-.423-7.943l.423 1.309-1.11-.81-1.114.807.422-1.309-1.11-.806h1.376l.422-1.306.423 1.309h1.376l-1.108.806zm0-6.637l.423 1.31-1.11-.81-1.114.81.422-1.31-1.11-.81h1.376l.422-1.305.426 1.309h1.376l-1.11.806zm0-6.636l.423 1.308-1.11-.806-1.114.806.422-1.308-1.11-.807h1.376l.422-1.305.423 1.308h1.376l-1.108.804zm4.295 24.534l-1.114-.81-1.113.807.422-1.309-1.107-.806h1.376l.422-1.306.423 1.309h1.376l-1.11.806.425 1.309zm-.426-7.946l.423 1.31-1.11-.807-1.111.806.422-1.309-1.11-.806h1.376l.422-1.306.423 1.31h1.376l-1.11.802zm0-6.633l.423 1.309-1.11-.81-1.111.81.422-1.31-1.11-.809h1.376l.422-1.305.423 1.308h1.376l-1.11.807zm0-6.637l.423 1.309-1.11-.807-1.111.807.422-1.309-1.11-.806h1.376l.422-1.306.423 1.309h1.376l-1.11.803zm4.298 17.898l-1.114-.807-1.113.807.422-1.31-1.11-.806h1.376l.422-1.305.422 1.309h1.376l-1.107.803.426 1.309zm-.426-7.943l.423 1.309-1.11-.81-1.114.807.422-1.309-1.11-.806h1.376l.422-1.306.422 1.309h1.376l-1.107.806zm0-6.637l.423 1.31-1.11-.81-1.114.81.422-1.31-1.11-.81h1.376l.422-1.305.426 1.309h1.376l-1.11.806zm0-6.636l.423 1.308-1.11-.806-1.114.806.422-1.308-1.11-.807h1.376l.422-1.305.422 1.308h1.376l-1.107.804zm4.295 24.534l-1.11-.81-1.114.807.422-1.309-1.11-.806h1.376l.422-1.306.422 1.309h1.376l-1.107.806.423 1.309zm-.423-7.946l.423 1.31-1.11-.807-1.114.806.422-1.309-1.11-.806h1.376l.422-1.306.422 1.31h1.376l-1.107.802zm0-6.633l.423 1.309-1.11-.81-1.114.81.422-1.31-1.11-.809h1.376l.422-1.305.422 1.308h1.376l-1.107.807zm0-6.637l.423 1.309-1.11-.807-1.114.807.422-1.309-1.11-.806h1.376l.422-1.306.422 1.309h1.376l-1.107.803zm0-6.634l.423 1.306-1.11-.806-1.114.806.422-1.309-1.11-.806h1.376l.422-1.306.426 1.309h1.376l-1.11.806zm4.295 24.532l-1.114-.807-1.11.807.422-1.31-1.11-.806h1.376l.422-1.308.422 1.308h1.373l-1.113.807.432 1.309zm-.426-7.943l.422 1.309-1.113-.806-1.107.803.422-1.306-1.11-.81h1.376l.422-1.308.422 1.309h1.373l-1.107.81zm0-6.637l.422 1.31-1.113-.807-1.107.806.422-1.309-1.11-.81h1.376l.422-1.308.422 1.309h1.373l-1.107.81zm0-6.636l.422 1.308-1.113-.806-1.107.806.422-1.308-1.11-.807h1.376l.422-1.309.422 1.31h1.373l-1.107.806zm4.294 24.534l-1.113-.806-1.114.806.423-1.309-1.114-.806h1.373l.422-1.309.423 1.309h1.376l-1.114.806.438 1.309zm-.422-7.946l.422 1.31-1.113-.807-1.114.806.423-1.309-1.108-.806h1.373l.423-1.309.422 1.309h1.376l-1.104.806zm0-6.633l.422 1.309-1.113-.807-1.114.807.423-1.31-1.114-.806h1.373l.422-1.308.423 1.308h1.376l-1.098.807zm0-6.637l.422 1.309-1.113-.807-1.114.807.423-1.309-1.114-.806h1.373l.422-1.31.423 1.31h1.376l-1.098.806zm0-6.634l.422 1.306-1.113-.806-1.11.806.422-1.309-1.114-.806h1.373l.422-1.309.423 1.309h1.376l-1.101.81zm4.294 24.532l-1.113-.807-1.114.807.423-1.31-1.114-.806h1.376l.422-1.308.423 1.308H41.9l-1.114.807.435 1.309zm-.425-7.943l.422 1.309-1.113-.806-1.114.806.422-1.309-1.113-.806h1.376l.422-1.309.423 1.309h1.376l-1.101.806zm0-6.637l.422 1.31-1.113-.807-1.114.806.422-1.309-1.113-.806h1.376l.422-1.309.423 1.309h1.376l-1.101.806zm0-6.636l.422 1.308-1.113-.806-1.114.806.422-1.308-1.113-.807h1.376l.422-1.309.423 1.31h1.376l-1.101.806zm4.297 24.534l-1.113-.806-1.114.806.423-1.309-1.114-.806h1.376l.422-1.306.423 1.309h1.376l-1.114.806.435 1.306zm-.425-7.946l.422 1.31-1.113-.807-1.114.806.422-1.309-1.107-.806h1.376l.423-1.306.422 1.31h1.376l-1.107.802zm0-6.633l.422 1.309-1.113-.807-1.114.807.422-1.31-1.113-.806h1.376l.422-1.305.423 1.309h1.376l-1.101.803zm0-6.637l.422 1.309-1.113-.807-1.114.807.422-1.309-1.113-.806h1.376l.422-1.306.423 1.309h1.376l-1.101.803z"/><path fill="#002664" d="M44.522 3.965c-.045-.023-.093-.045-.138-.067l.022.067h.116zM20.47 3.54c-.336.134-.662.278-.992.425h.855l.137-.426z"/><path fill="#BB133E" d="M47.974 24.909h13.892a30.872 30.872 0 00-1.504-4.723H47.974v4.723zM47.974 34.362h14.628c.06-.781.118-1.562.118-2.362s-.058-1.58-.118-2.362H47.974v4.724z"/><path fill="#CCC" d="M32 1.6c16.64 0 30.4 13.76 30.4 30.4S48.64 62.4 32 62.4 1.6 48.64 1.6 32 15.36 1.6 32 1.6zM32 0C14.4 0 0 14.4 0 32s14.4 32 32 32 32-14.4 32-32S49.6 0 32 0z"/></svg>